<?xml version="1.0" encoding="UTF-8" standalone="no"?>
<svg
   version="1.1"
   id="svg2"
   xml:space="preserve"
   width="561.26001"
   height="793.70135"
   viewBox="0 0 561.26001 793.70135"
   sodipodi:docname="corne_top_inkscape.svg"
   inkscape:version="1.3.2 (091e20ef0f, 2023-11-25)"
   xmlns:inkscape="http://www.inkscape.org/namespaces/inkscape"
   xmlns:sodipodi="http://sodipodi.sourceforge.net/DTD/sodipodi-0.dtd"
   xmlns="http://www.w3.org/2000/svg"
   xmlns:svg="http://www.w3.org/2000/svg"
   xmlns:rdf="http://www.w3.org/1999/02/22-rdf-syntax-ns#"
   xmlns:cc="http://creativecommons.org/ns#"
   xmlns:dc="http://purl.org/dc/elements/1.1/">
  <metadata
   id="metadata8">
    <rdf:RDF><cc:Work
     rdf:about=""><dc:format>image/svg+xml</dc:format><dc:type
       rdf:resource="http://purl.org/dc/dcmitype/StillImage" /><dc:title /></cc:Work></rdf:RDF>
  </metadata>
  <defs
   id="defs6">
    <clipPath
   clipPathUnits="userSpaceOnUse"
   id="clipPath18">
      <path
   d="M 0,595.276 H 420.945 V 0 H 0 Z"
   id="path16" />
    </clipPath>
    <clipPath
   clipPathUnits="userSpaceOnUse"
   id="clipPath306">
      <path
   d="M 0,595.276 H 420.945 V 0 H 0 Z"
   id="path304" />
    </clipPath>
  </defs>
  <sodipodi:namedview
   pagecolor="#ffffff"
   bordercolor="#666666"
   borderopacity="1"
   objecttolerance="10"
   gridtolerance="10"
   guidetolerance="10"
   inkscape:pageopacity="0"
   inkscape:pageshadow="2"
   inkscape:window-width="2560"
   inkscape:window-height="1371"
   id="namedview4"
   showgrid="false"
   inkscape:zoom="2.2426571"
   inkscape:cx="305.2183"
   inkscape:cy="566.96139"
   inkscape:window-x="0"
   inkscape:window-y="0"
   inkscape:window-maximized="1"
   inkscape:current-layer="g10"
   inkscape:showpageshadow="0"
   inkscape:pagecheckerboard="1"
   inkscape:deskcolor="#505050" />
  <g
   id="g10"
   inkscape:groupmode="layer"
   inkscape:label="top"
   transform="matrix(1.3333333,0,0,-1.3333333,0,793.70133)">
    
    
  <path
   style="fill:#000000;stroke-width:3.48012"
   d="m 87.842229,759.65454 c -1.484677,-0.48556 -2.725669,-2.52915 -25.49227,-41.97907 -25.311017,-43.85888 -25.09192,-43.42833 -23.222266,-45.63518 0.429179,-0.50657 16.832712,-10.17398 36.452296,-21.48311 19.619584,-11.30914 36.073281,-20.9552 36.563771,-21.43569 0.88501,-0.86698 0.8935,-1.61089 1.11475,-97.73296 l 0.22295,-96.85933 34.97103,-0.11421 c 31.46648,-0.10277 35.05079,-0.18639 35.76688,-0.83444 0.62365,-0.5644 0.82354,-1.55268 0.92389,-4.56774 l 0.12804,-3.8475 35.04623,-0.22295 c 28.37048,-0.18049 35.18322,-0.33667 35.7654,-0.81995 0.52208,-0.43339 0.75467,-1.5332 0.8487,-4.0131 l 0.12951,-3.4161 h 32.99657 32.99658 l 0.12951,3.4161 c 0.094,2.4799 0.32662,3.57971 0.8487,4.0131 0.58218,0.48328 7.39492,0.63946 35.7654,0.81995 l 35.04623,0.22295 0.1213,8.07745 c 0.10697,7.12305 0.21631,8.16343 0.92539,8.80514 0.73542,0.66555 6.8553,0.73732 71.66854,0.84054 l 70.86445,0.11285 v 105.23232 105.23231 l -105.08369,0.22295 c -57.79604,0.12262 -105.17746,0.32328 -105.29205,0.4459 -0.11458,0.12262 -8.97714,12.26224 -19.69456,26.97693 -10.71742,14.71469 -19.82034,27.09906 -20.22871,27.52082 -0.61077,0.63081 -13.23527,2.39225 -71.1647,9.92929 -38.73222,5.03935 -70.93732,9.4221 -71.56689,9.73945 -0.62957,0.31735 -12.88298,7.36634 -27.22981,15.66443 -14.34682,8.2981 -26.687089,15.3376 -27.422824,15.64335 -1.028525,0.42742 -1.698405,0.43794 -2.898347,0.0455 z m 16.906831,-35.29058 c 17.33721,-9.99265 23.14772,-13.54621 22.96669,-14.04584 -0.35766,-0.98712 -26.09758,-45.61081 -26.67809,-46.25014 -0.3814,-0.42004 -5.819043,2.52648 -23.653219,12.81708 -12.736881,7.34938 -23.327172,13.53171 -23.533979,13.73852 -0.489969,0.48996 26.469905,47.36158 27.161992,47.22301 0.290163,-0.0581 10.971634,-6.12528 23.736606,-13.48263 z m 77.62389,-11.37958 c 14.10158,-3.7601 25.71352,-6.89219 25.80432,-6.96019 0.15781,-0.1182 -13.72711,-52.40628 -13.99441,-52.70038 -0.10494,-0.11547 -52.35732,13.72091 -52.71669,13.95934 -0.10505,0.0697 13.49824,51.15243 13.9364,52.33365 0.12316,0.33201 0.47305,0.51376 0.77754,0.40389 0.30448,-0.10987 12.09127,-3.27621 26.19284,-7.03631 z m 98.98972,-36.55463 v -27.19988 h -27.19988 -27.19987 v 27.19988 27.19988 h 27.19987 27.19988 z m 179.69756,-56.4063 V 592.60062 H 433.6374 406.21457 v 27.42283 27.42283 h 27.42283 27.42283 z m 71.78984,0 v -27.42283 h -27.42283 -27.42283 v 27.42283 27.42283 h 27.42283 27.42283 z m -358.94921,-8.918 V 583.68263 H 146.47803 119.0552 v 27.42282 27.42283 h 27.42283 27.42283 z m 71.78984,-8.91799 v -27.42283 h -27.42283 -27.42282 v 27.42283 27.42283 h 27.42282 27.42283 z m 143.57968,0 v -27.42283 h -27.42282 -27.42283 v 27.42283 27.42283 h 27.42283 27.42282 z m -71.78984,-8.91799 v -27.42283 h -27.42283 -27.42282 v 27.12556 c 0,14.91906 0.13377,27.25934 0.29727,27.42283 0.16349,0.1635 12.50376,0.29727 27.42282,0.29727 h 27.12556 z M 461.06023,548.23361 V 520.81078 H 433.6374 406.21457 v 27.42283 27.42282 h 27.42283 27.42283 z m 71.78984,0 v -27.42283 h -27.42283 -27.42283 v 27.42283 27.42282 h 27.42283 27.42283 z m -358.94921,-8.918 V 511.89279 H 146.47803 119.0552 v 27.42282 27.42283 h 27.42283 27.42283 z m 71.78984,-8.91799 v -27.42283 h -27.42283 -27.42282 v 27.42283 27.42283 h 27.42282 27.42283 z m 143.57968,0 v -27.42283 h -27.42282 -27.42283 v 27.42283 27.42283 h 27.42283 27.42282 z m -71.78984,-9.14094 V 494.0568 h -27.42283 -27.42282 v 27.19988 27.19988 h 27.42282 27.42283 z M 461.06023,476.44376 V 449.02094 H 433.6374 406.21457 v 27.42282 27.42283 h 27.42283 27.42283 z m 71.78984,0 v -27.42282 h -27.42283 -27.42283 v 27.42282 27.42283 h 27.42283 27.42283 z M 173.90086,467.52577 V 440.10294 H 146.47803 119.0552 v 27.42283 27.42283 h 27.42283 27.42283 z m 71.78984,-8.91799 v -27.42283 h -27.42283 -27.42282 v 27.42283 27.42283 h 27.42282 27.42283 z m 143.57968,0 v -27.42283 h -27.42282 -27.42283 v 27.42283 27.42283 h 27.42283 27.42282 z m -71.78984,-9.14094 v -27.19988 h -27.42283 -27.42282 v 27.19988 27.19987 h 27.42282 27.42283 z"
   id="path1"
   transform="matrix(0.75000002,0,0,-0.75000002,0,595.27601)" /></g>
</svg>
